<?xml version="1.0" encoding="utf-8"?>
<!-- Generator: Adobe Illustrator 23.0.6, SVG Export Plug-In . SVG Version: 6.00 Build 0)  -->
<svg version="1.1" id="Livello_1" xmlns="http://www.w3.org/2000/svg" xmlns:xlink="http://www.w3.org/1999/xlink" x="0px" y="0px"
	 viewBox="0 0 860.5 471.1" style="enable-background:new 0 0 860.5 471.1;" xml:space="preserve">
<style type="text/css">
	.st0{fill:#1545AC;}
	.st1{fill-rule:evenodd;clip-rule:evenodd;fill:#1545AC;}
</style>
<title>logo-blu</title>
<g id="Raggruppa_2">
	<path id="Tracciato_1" class="st0" d="M597.2,356c0.1,3.6,0.5,7.1,1.3,10.6c0.7,2,2.3,3.5,4.2,4.1c1.3,0.2,3.9-1.7,4.6-3.2
		c3.7-8.4,4-18,0.8-26.7c-1.3-3.8-5-3.9-7.3-0.6c-0.8,1.2-1.4,2.5-1.7,3.9C598.4,347.9,597.9,351.9,597.2,356L597.2,356z
		 M629.2,355.3c-0.9,5.5-3.9,10.5-8.4,13.8c-4.8,3-8.2,1.2-10.4-6.2c-0.6,1.6-1.1,2.6-1.4,3.5c-1.3,5.7-5.8,10-11.6,11
		c-3.7,0.6-7.3-1.3-8.9-4.6c-0.3-0.6-0.8-1.2-1.5-2.3c-1.2,2.4-2.2,4.4-3.2,6.3c-1.8,3.9-5.2,6.8-9.4,7.9c-4.4,1.1-7.5-1-7.4-5.5
		c0.1-7.3,0.4-14.5,0.6-21.8c0.2-5.4,0-5.5-5.3-5.2c-0.3,0-0.6-0.1-0.9-0.3c4.8-3.5,10.2-6,16-7.3v11.6c0,6-0.2,12-0.1,17.9
		c0.2,1.2,0.7,2.3,1.3,3.4c1.2-0.5,2.4-1.1,3.4-2c1.7-2.2,3.3-4.4,4.8-6.8c0.2-0.4,0.1-1,0-1.6c-0.9-9.1,1.6-18.1,6.9-25.5
		c0.6-0.9,1.3-1.7,2.1-2.5c2.8-3.9,8.3-4.7,12.2-1.9c0,0,0,0,0,0c0.2,0.2,0.4,0.3,0.6,0.5c1.7-1.7-1.3-5.2,2.6-6.1
		c2.4-0.7,4.7-1.6,7-2.7c0.6,6.8,1.2,13.1,1.8,19.4c0.4,3.7,0.7,7.4,1.2,11c0.1,0.9,1,1.8,1.5,2.6c0.9-0.6,2.2-1,2.7-1.9
		c1-1.8,1.9-3.7,2.6-5.6L629.2,355.3L629.2,355.3z"/>
	<path id="Tracciato_2" class="st0" d="M518.6,388.5c-1.8,5.6-7.1,9.4-13.1,9.3c-4.4,0.2-8.1-3.2-8.3-7.6c-0.4-3.6-0.1-7.1,0.8-10.6
		c2-6.8,5.9-12.9,11.2-17.6c1-0.9,2-1.6,3.2-2.2c3.5-2.8,8.7-2.3,11.5,1.3c0,0,0,0,0,0c0.1,0.1,0.2,0.3,0.3,0.4
		c1.7-1.4,0.2-5.1,3.7-5.2c2.6-0.3,5.1-0.7,7.6-1.3c-0.9,7.3-1.8,14.1-2.6,21c-0.4,3.2-0.7,6.5-0.9,9.7c0,0.9,0.8,1.8,1.2,2.8
		c1-0.3,1.9-0.8,2.7-1.4c1.5-1.7,2.9-3.6,4.2-5.5c-1.1,7.2-7,12.8-14.3,13.4c-2.7-0.1-4.9-2.4-4.8-5.1c0-0.1,0-0.2,0-0.4
		c0-0.8-0.1-1.7-0.1-2.9l-2.4,2c1.1-2.1,2-4.3,2.7-6.6c1.1-5.7,1.8-11.5,2.3-17.3c-0.2-1.6-1.2-3.1-2.7-3.8
		c-1.8-0.1-3.5,0.5-4.8,1.7c-1.3,1.2-2.3,2.7-2.8,4.3c-1.6,4.8-3.2,9.7-4.4,14.6c-0.6,2.2-0.7,4.5-0.3,6.8c0.5,1.7,1.6,3.2,3.2,3.9
		c1.2,0.4,3.1-0.7,4.6-1.5C517.1,390,517.9,389.3,518.6,388.5L518.6,388.5z"/>
	<path id="Tracciato_3" class="st0" d="M463,399h-27.8c2.4-1.3,4.6-2.9,6.5-4.8c1.5-2.5,2.7-5.2,3.4-8c3.5-10.4,7.1-20.7,10.6-31.1
		c0.3-0.9,0.6-1.9,0.7-2.8c0.7-4,0.1-5-3.8-6c-0.6-0.1-1.1-0.5-1.3-1.1h23.9c-5,1.4-5.5,5.8-6.7,9.9c-3.2,11-6.6,22-10,33
		C456,396.1,456,396,463,399L463,399z"/>
	<path id="Tracciato_4" class="st0" d="M540.8,335.5l15.8-5.7c0,3.8,0.2,7.3,0,10.6c-0.7,12.5-1.5,24.9-2.3,37.4
		c-0.1,0.4-0.1,0.9,0,1.3c0.4,1.5,0.9,3.1,1.4,4.6c1.5-0.9,2.9-1.9,4.2-3.1c1.2-1.3,2-3,3.2-4.4c-0.8,7.4-6.3,13.3-13.6,14.6
		c-2.9,0.3-5.6-1.8-5.9-4.7c-0.1-0.5-0.1-1,0-1.5c0.5-7.2,1.4-14.5,2-21.7c0.6-6.6,1.1-13.2,1.6-19.8c0.4-6.1-0.1-6.6-5.8-6.6
		L540.8,335.5L540.8,335.5z"/>
	<path id="Tracciato_5" class="st0" d="M481.3,365.6l-4.2-0.5c-0.1-0.4-0.1-0.7-0.1-1.1c0-0.3,0.2-0.6,0.4-0.8
		c6.2-3.1,11.6-7.7,15.5-13.5c0.2-0.2,0.8-0.1,1.8-0.1c-0.6,3-1.2,5.8-1.8,8.6c-0.7,3.3-0.5,3.5,2.9,3.3c0.7-0.1,1.5-0.1,2.3,0
		c0.5,0.2,0.8,0.6,0.9,1.1c-0.1,0.5-0.3,0.9-0.7,1.2c-0.3,0.2-0.6,0.3-0.9,0.2c-5.6-0.6-6.6,3.2-7.4,7.5c-1.3,6.4-3,12.7-4.3,19
		c0,1.2,0.3,2.4,0.7,3.5c1.2-0.3,2.4-0.8,3.4-1.4c1.6-1.6,3.1-3.2,4.4-5c0.4,0.4,0.7,0.7,0.6,0.7c-2,5.5-6.6,9.7-12.2,11.2
		c-6.7,1.4-9.8-1.9-8.1-8.5c1.4-5.5,3-10.9,4.5-16.3C479.8,371.7,480.5,368.8,481.3,365.6L481.3,365.6z"/>
	<path id="Tracciato_6" class="st0" d="M571.5,327.3c2.5-0.3,4.7,1.5,5,3.9v0.4c0.1,2.8-2.1,5.1-4.9,5.2h-0.2
		c-2.6,0.1-4.8-1.9-4.9-4.5v-0.1c-0.1-2.6,1.9-4.9,4.5-5c0,0,0,0,0.1,0L571.5,327.3z"/>
	<g id="Raggruppa_1">
		<path id="Tracciato_8" class="st1" d="M438.4,0h-39.9C271.8-1.2-3.9,71.7,0,240.4c3.9,165,243.7,231.9,382.8,230.7
			c179.1-1.3,299.3-84,347.6-154.4c20.7-31.5,37.8-65.2,51-100.6l1.8-5.9c1.4-3.2,3.4-5.8,4.6-8.5c2-2,3.2-4,4.6-4.7l3.2-1.3
			c2-1.3,3.2-2,3.2-2c2,0,2.7,0,2.7-0.6l0.6-0.7c0-0.7,0-0.7,0.7-1.3v-7.9c-0.7-2-1.3-2.7-3.2-3.2h-45.8c-1.3,0-2,1.3-2.5,2.5v9.2
			c0,0.7,0.6,1.4,2.5,1.4l3.2,0.6h4.6c5.2,0.8,8.8,5.8,8,11c0,0.3-0.1,0.6-0.2,0.9c0,4,0,21.6-28.8,74.9l-20.2-74.1l-1.3-2.7
			c-0.6-1.3-0.8-2.6-0.7-4c0-4.7,3.2-6.5,9.8-6.5h2.5l0.7-0.7v-7.9c0-2,0-3.2-0.7-4l-0.6-0.6h-58.8c-1.3,0-2,0.6-2,2.5v7.9l0.7,2
			h0.6c0,0.7,0.7,0.7,1.4,0.7c4.7,0.3,8.8,3.4,10.4,7.8l1.3,2.7l35.4,107.1c-30.7,46.6-109.1,108.5-333.2,114.9
			c-133.3,4-372.5-55.2-374.5-185.3C9.2,101.8,229.3,50.6,393.9,44.1l37.2,1.3C814,52,848.7,209.6,844.8,248.3
			c-11.1,116.3-151.6,193.2-287.5,204.3c160.7,26.9,297.2-84.2,298.6-212.3C855.9,189.8,799.7,12.4,438.4,0L438.4,0z"/>
	</g>
	<path id="Tracciato_9" class="st1" d="M623.4,264.4c-1.3,5.2-3.1,10.2-5.3,15.1c-2.9,8-10.3,13.4-18.8,13.8
		c-16.4,0-24.8-16.5-24.8-50.6c-0.1-9.3,0.6-18.5,2-27.7c1-6.9,3.7-13.5,7.9-19.1c3.4-5.4,9.2-8.8,15.6-9.2c3.9,0,7.6,1.4,10.5,4
		c3,2.3,5.5,5.2,7.2,8.6c2.6,4,4.4,8.4,5.2,13.1c1.9,8.6,2.8,17.4,2.7,26.2C625.5,247.4,624.8,255.9,623.4,264.4L623.4,264.4z
		 M676.2,292.7h-5.8l-3.9-0.7c-5.3-0.6-7.9-4.5-7.9-11.7V87.7L606.4,112l-1.4,1.3c-2,5.2,0,11.2,2.7,10.6c3-0.1,5.8-1.3,7.9-3.4
		c7.2-2.5,9.8-2.5,10.4,4.7v67.7c-2.6-4.7-5.7-9.1-9.1-13.1c-3.3-2.8-7-5-11.1-6.5c-4.5-1.9-9.4-2.8-14.3-2.7
		c-7.3,0.1-14.4,1.9-20.9,5.2c-6.3,3.7-11.9,8.6-16.3,14.4c-5.4,7.4-9.4,15.6-11.8,24.4c-3.2,9.1-4.8,18.6-4.6,28.3
		c0.3,10,1.8,19.9,4.6,29.5c7.9,25,23.4,37.4,46.3,37.4c13.3,0.5,25.9-6,33.3-17.1l5.3-7.9V309l48.3-2.5c2,0,2.5-1.4,2.5-3.4v-7.2
		C678.4,294.5,677.5,293.1,676.2,292.7L676.2,292.7z"/>
	<path id="Tracciato_10" class="st1" d="M265.4,293.9l-3.2-1.2c-2.2-0.3-4.2-1.2-5.9-2.7c-4.2-3-7.8-6.8-10.5-11.2l-39.2-56.5
		l22.2-22.9c6.7-7,15.9-10.8,25.5-10.6h1.3l0.7-0.7l0.6-1.8v-10.6h-0.6c-0.4-0.4-0.9-0.7-1.4-0.7h-59.4c-3.2,0-5.2,1.4-5.2,2.7v9.2
		l2.7,1.3l8.4,1.4c3.9,0.6,5.2,2.5,5.9,7.2c-0.5,4.3-2.6,8.3-5.9,11.2L170,243.4V96.9l-52.2,24.3l-1.4,1.3c-2,5.4,0,11.2,2.7,10.6
		c3,0.1,5.8-1.1,7.9-3.2c7.2-2.7,9.8-2.7,10.4,4.5v150.4c0,5.2-2,7.9-5.9,8.6h-2.5l-5.9,0.6c-0.7,0-0.7,0-1.3,0.7
		c0,0-0.7,0.7-0.7,1.3v9.9l0.7,0.7c0,0.6,0.6,0.6,1.3,0.6h62.7l1.4-0.6c0.6,0,0.6,0,0.6-0.7l0.7-2.7v-7.8l-2-1.4l-5.2-0.6h-3.9
		c-4.6-0.7-7.2-4-7.2-11.2v-20.5l13.7-14.4l22.9,32.9l2,4c1,1,1.4,2.4,1.3,3.8c0.3,2.7-1.6,5.1-4.3,5.3c0,0,0,0,0,0
		c-0.3,0-0.6,0-0.9,0l-5.9,0.6h-0.6l-0.7,1.4v7.8c-0.7,2.7,1.3,4,5.9,4h58.2c2.7,0,3.9,0,3.9-1.3l0.6-2.7v-5.8L265.4,293.9
		L265.4,293.9z"/>
	<path id="Tracciato_11" class="st1" d="M528,293.9h-4.6c-3.9,0-6.5-0.6-7.2-2c-1.7-2-2.7-4.6-2.7-7.2v-68.3
		c0.4-11.5-3-22.8-9.8-32.1c-6.4-8.3-16.2-13.1-26.7-13.1c-15.7,0-28.1,9.2-36,26.2l-2.7,5.8v-32.1l-52.2,23.6
		c0,0.7-1.3,1.3-1.3,1.3c-2,5.9,0,11.2,2.7,11.2c3.1-0.3,6-1.4,8.4-3.2c5.2-2.5,7.9-2.5,9.1,1.3v80.9c0.4,3.9-2.5,7.4-6.4,7.8
		c-0.5,0-1,0-1.5,0h-5.9c-1.8,0-2.5,0.7-2.5,2.7v7.2c0.7,2,1.3,3.2,2.5,3.2h62.8v-0.6l0.7-0.7v-9.9c0.1-1-0.6-1.9-1.5-2c0,0,0,0,0,0
		c-0.1,0-0.3,0-0.4,0H447l-3.9-0.6c-3.2-0.7-4.6-2.7-4.6-6.6v-61c1-7.3,3.5-14.2,7.3-20.5c4.2-5.5,10.6-8.8,17.5-9.2
		c11.8-0.6,17,6.6,17.7,21v69.1c0,5.2-3.4,7.8-9.1,7.8h-5.3c-2-0.6-2.5,0.7-2,2.7v7.9c0,1.3,0.7,2.5,2,2.5h62.8l0.7-2v-9.2
		c0.1-1-0.6-1.9-1.6-2c0,0,0,0,0,0C528.3,293.9,528.1,293.9,528,293.9L528,293.9z"/>
	<path id="Tracciato_12" class="st1" d="M296,240.8V227l1.4-7.9c2.5-23.6,10.4-35.5,23.5-36.2c7.6,0.6,14.2,5.5,17,12.6
		c3,6.1,4.6,12.8,4.6,19.6c0.6,7.9,0.6,13.1-4.6,14.5L296,248L296,240.8L296,240.8z M380.3,265.1l-6.5-4h-2l-0.7,0.6
		c-0.6,1.2-1.3,2.3-2,3.4c-0.4,1.9-1.3,3.7-2.5,5.2c-1.9,3.8-4.3,7.3-7.2,10.5c-5.8,7.9-20.3,11.9-31.4,11.9
		c-15.6,0-25.4-9.2-29.3-28.3c-0.7-0.7-0.7-0.7-0.7-1.3l80.3-34.9l-0.6-7.2c-0.3-2.8-0.7-5.7-1.3-8.5c-7.3-30.2-27.5-42.8-55.6-42.8
		c-23.6,0.4-44.8,14.6-54.2,36.2c-5.8,11.2-8.7,23.6-8.4,36.2c-0.2,14.7,4.1,29.2,12.4,41.4c8.1,11.1,19.6,19.4,32.7,23.6
		c6,1.6,12.1,2.5,18.3,2.7c7.3,0.1,14.5-0.8,21.5-2.7c15-4.4,27.2-15.2,33.4-29.5l3.2-7.2c0.7-1.2,1.1-2.6,1.3-4L380.3,265.1
		L380.3,265.1z"/>
</g>
</svg>
